<svg width="42" height="40" viewBox="0 0 42 40" fill="none" xmlns="http://www.w3.org/2000/svg">
<path d="M4.33342 0.25C2.02091 0.25 0.166748 2.10417 0.166748 4.41667V25.25C0.166748 26.3551 0.605735 27.4149 1.38714 28.1963C2.16854 28.9777 3.22835 29.4167 4.33342 29.4167H21.0001V39.8333L27.2501 33.5833L33.5001 39.8333V29.4167H37.6668C38.7718 29.4167 39.8316 28.9777 40.613 28.1963C41.3944 27.4149 41.8334 26.3551 41.8334 25.25V4.41667C41.8334 3.3116 41.3944 2.25179 40.613 1.47039C39.8316 0.688987 38.7718 0.25 37.6668 0.25H4.33342ZM21.0001 4.41667L27.2501 8.58333L33.5001 4.41667V11.7083L39.7501 14.8333L33.5001 17.9583V25.25L27.2501 21.0833L21.0001 25.25V17.9583L14.7501 14.8333L21.0001 11.7083V4.41667ZM4.33342 4.41667H14.7501V8.58333H4.33342V4.41667ZM4.33342 12.75H10.5834V16.9167H4.33342V12.75ZM4.33342 21.0833H14.7501V25.25H4.33342V21.0833Z" fill="#794BFF"/>
</svg>
