<svg width="46" height="46" viewBox="0 0 46 46" fill="none" xmlns="http://www.w3.org/2000/svg">
<path fill-rule="evenodd" clip-rule="evenodd" d="M31.3332 16.7501C31.3332 18.9602 30.4552 21.0798 28.8924 22.6426C27.3296 24.2054 25.21 25.0834 22.9998 25.0834C20.7897 25.0834 18.6701 24.2054 17.1073 22.6426C15.5445 21.0798 14.6665 18.9602 14.6665 16.7501C14.6665 14.5399 15.5445 12.4203 17.1073 10.8575C18.6701 9.29472 20.7897 8.41675 22.9998 8.41675C25.21 8.41675 27.3296 9.29472 28.8924 10.8575C30.4552 12.4203 31.3332 14.5399 31.3332 16.7501ZM27.1665 16.7501C27.1665 17.8552 26.7275 18.915 25.9461 19.6964C25.1647 20.4778 24.1049 20.9167 22.9998 20.9167C21.8948 20.9167 20.835 20.4778 20.0536 19.6964C19.2722 18.915 18.8332 17.8552 18.8332 16.7501C18.8332 15.645 19.2722 14.5852 20.0536 13.8038C20.835 13.0224 21.8948 12.5834 22.9998 12.5834C24.1049 12.5834 25.1647 13.0224 25.9461 13.8038C26.7275 14.5852 27.1665 15.645 27.1665 16.7501Z" fill="#794BFF"/>
<path fill-rule="evenodd" clip-rule="evenodd" d="M22.9999 0.083374C10.3437 0.083374 0.083252 10.3438 0.083252 23C0.083252 35.6563 10.3437 45.9167 22.9999 45.9167C35.6562 45.9167 45.9166 35.6563 45.9166 23C45.9166 10.3438 35.6562 0.083374 22.9999 0.083374ZM4.24992 23C4.24992 27.3542 5.73533 31.3625 8.22492 34.5459C9.97332 32.2498 12.2289 30.3891 14.8154 29.109C17.4019 27.829 20.2494 27.1642 23.1353 27.1667C25.9839 27.164 28.7956 27.8115 31.356 29.06C33.9165 30.3085 36.1582 32.1249 37.9103 34.3709C39.7154 32.0034 40.9308 29.2401 41.4559 26.3096C41.9811 23.3791 41.8008 20.3657 40.9301 17.5188C40.0594 14.6718 38.5233 12.0731 36.4488 9.93762C34.3744 7.80218 31.8213 6.19141 29.0007 5.2386C26.1802 4.28579 23.1732 4.01831 20.2288 4.45832C17.2843 4.89832 14.487 6.03315 12.0682 7.7689C9.64939 9.50466 7.67869 11.7914 6.31915 14.44C4.9596 17.0886 4.25029 20.0229 4.24992 23ZM22.9999 41.75C18.6956 41.7565 14.5213 40.2758 11.1833 37.5584C12.5269 35.6349 14.3152 34.0645 16.3962 32.9806C18.4771 31.8968 20.7891 31.3317 23.1353 31.3334C25.4523 31.3315 27.7363 31.8825 29.7977 32.9405C31.859 33.9985 33.6382 35.5331 34.9874 37.4167C31.6235 40.2223 27.3803 41.7562 22.9999 41.75Z" fill="#794BFF"/>
</svg>
